{
  "accessors": [
    {
      "bufferView": 1,
      "componentType": 5126,
      "count": 859,
      "max": [
        26.75200080871582,
        11.347999572753906,
        60.78799819946289
      ],
      "min": [
        -15.539999961853027,
        -11.350000381469727,
        -0.0020000000949949026
      ],
      "type": "VEC3"
    },
    {
      "bufferView": 1,
      "byteOffset": 10308,
      "componentType": 5126,
      "count": 859,
      "max": [
        0.9999129772186279,
        0.9999281167984009,
        1.0
      ],
      "min": [
        -0.9999395608901978,
        -0.9998823404312134,
        -1.0
      ],
      "type": "VEC3"
    },
    {
      "bufferView": 0,
      "componentType": 5125,
      "count": 2106,
      "type": "SCALAR"
    }
  ],
  "asset": {
    "extras": {
      "author": "Microsoft (https://sketchfab.com/microsoft)",
      "license": "CC-BY-4.0 (http://creativecommons.org/licenses/by/4.0/)",
      "source": "https://sketchfab.com/3d-models/bronco-37e3760bfde44beeb39e6fd69b690637",
      "title": "Bronco"
    },
    "generator": "Sketchfab-12.68.0",
    "version": "2.0"
  },
  "bufferViews": [
    {
      "buffer": 0,
      "byteLength": 8424,
      "name": "floatBufferViews",
      "target": 34963
    },
    {
      "buffer": 0,
      "byteLength": 20616,
      "byteOffset": 8424,
      "byteStride": 12,
      "name": "floatBufferViews",
      "target": 34962
    }
  ],
  "buffers": [
    {
      "byteLength": 29040,
      "uri": "scene.bin"
    }
  ],
  "materials": [
    {
      "doubleSided": true,
      "name": "wire_143225087",
      "pbrMetallicRoughness": {
        "baseColorFactor": [
          1.0,
          0.9899636881,
          0.9899636881,
          1.0
        ],
        "metallicFactor": 0.0,
        "roughnessFactor": 0.6
      }
    }
  ],
  "meshes": [
    {
      "name": "Object_0",
      "primitives": [
        {
          "attributes": {
            "NORMAL": 1,
            "POSITION": 0
          },
          "indices": 2,
          "material": 0,
          "mode": 4
        }
      ]
    }
  ],
  "nodes": [
    {
      "children": [
        1
      ],
      "matrix": [
        1.0,
        0.0,
        0.0,
        0.0,
        0.0,
        2.220446049250313e-16,
        -1.0,
        0.0,
        0.0,
        1.0,
        2.220446049250313e-16,
        0.0,
        0.0,
        0.0,
        0.0,
        1.0
      ],
      "name": "Sketchfab_model"
    },
    {
      "children": [
        2
      ],
      "name": "abb68f8c4e61477fa7c986d6336d1a38.obj.cleaner"
    },
    {
      "mesh": 0,
      "name": "Object_2"
    }
  ],
  "scene": 0,
  "scenes": [
    {
      "name": "Sketchfab_Scene",
      "nodes": [
        0
      ]
    }
  ]
}
